<svg width="16" height="16" viewBox="0 0 16 16" fill="none" xmlns="http://www.w3.org/2000/svg">
<g clip-path="url(#clip0_209_180)">
<path d="M5.38472 9.51323C5.38472 9.18273 5.15722 8.93373 4.85572 8.93373H0.900716C0.598466 8.93373 0.371216 9.18273 0.371216 9.51323C0.371216 9.83498 0.601466 10.0782 0.907716 10.0782H2.28147V14.5315C2.28147 14.8562 2.52797 15.081 2.88072 15.081C3.23472 15.081 3.48222 14.8562 3.48222 14.5315V10.0782H4.85597C5.15222 10.0782 5.38472 9.82998 5.38472 9.51323ZM7.76247 8.82573C6.08047 8.82573 4.99247 10.065 4.99247 11.982C4.99247 13.9082 6.07947 15.153 7.76247 15.153C9.43622 15.153 10.5175 13.9112 10.5175 11.9902C10.5175 10.0675 9.43722 8.82573 7.76247 8.82573ZM7.76247 14.0162C6.80872 14.0162 6.21647 13.2402 6.21647 11.9902C6.21647 10.7352 6.80872 9.95473 7.76247 9.95473C8.70747 9.95473 9.29422 10.7187 9.29422 11.9462C9.29497 13.2617 8.73622 14.0162 7.76247 14.0162ZM13.6 8.93323H12.006C11.3512 8.93323 11.0187 9.27998 11.0187 9.96448V14.5162C11.0187 14.8542 11.2575 15.0807 11.6125 15.0807C11.961 15.0807 12.2052 14.8517 12.2052 14.5237V12.7472H13.5722C14.8605 12.7472 15.63 12.0162 15.63 10.7902C15.63 9.62823 14.871 8.93323 13.6 8.93323ZM14.4145 10.805C14.4145 11.3622 14.1342 11.6332 13.5565 11.6332H12.205V10.0552H13.5565C14.1342 10.0555 14.4145 10.3005 14.4145 10.805ZM9.45622 7.38623V4.80973H10.178C10.6022 4.80973 10.9512 4.40348 10.9927 3.88273L7.74447 0.146484L4.51772 3.88123C4.55972 4.40198 4.90822 4.80948 5.33297 4.80948H6.05472V7.38598L9.45622 7.38623Z" fill="#25333A"/>
</g>
<defs>
<clipPath id="clip0_209_180">
<rect width="16" height="16" fill="white"/>
</clipPath>
</defs>
</svg>
